<?xml version="1.0" encoding="UTF-8"?>
<svg xmlns="http://www.w3.org/2000/svg" xmlns:xlink="http://www.w3.org/1999/xlink" width="440px" height="220px" viewBox="0 0 149 63" version="1.1">
<g id="surface1">
<path style=" stroke:none;fill-rule:nonzero;fill:rgb(17.647059%,16.470588%,43.921569%);fill-opacity:1;" d="M 50.40625 63 L 64.804688 63 L 61.503906 57.539062 Z M 58.808594 53.09375 L 43.839844 28.355469 L 72.863281 0 L 49.9375 0 C 48.136719 0 46.414062 0.707031 45.125 1.96875 L 24.796875 21.949219 L 27.085938 0 L 6.382812 0 L 0.199219 59.242188 C 0.0976562 60.203125 0.40625 61.160156 1.046875 61.878906 C 1.691406 62.597656 2.605469 63.007812 3.566406 63.003906 L 20.507812 63.003906 L 21.914062 49.703125 L 28.15625 43.617188 L 39.136719 61.078125 C 39.886719 62.273438 41.195312 62.996094 42.601562 62.996094 L 50.40625 62.996094 L 54.34375 55.097656 Z M 58.808594 53.09375 "/>
<path style=" stroke:none;fill-rule:nonzero;fill:rgb(92.941176%,41.960784%,13.72549%);fill-opacity:1;" d="M 71.289062 63 L 99.328125 45.851562 L 102.894531 60.414062 C 103.269531 61.9375 104.625 63.007812 106.183594 63.003906 L 124.335938 63.003906 L 116.226562 35.5 L 147.101562 16.613281 L 147.234375 15.347656 L 50.429688 62.996094 Z M 113.328125 25.648438 L 105.761719 0 L 87.925781 0 C 84.203125 0 80.796875 2.113281 79.128906 5.460938 L 53.640625 56.484375 L 147.421875 13.449219 L 147.566406 12.003906 Z M 83.1875 37.652344 L 89.4375 24.34375 L 91.085938 20.667969 C 91.285156 20.230469 91.738281 19.96875 92.210938 20.011719 C 92.6875 20.054688 93.082031 20.394531 93.199219 20.859375 L 96.058594 32.523438 Z M 83.1875 37.652344 "/>
<path style=" stroke:none;fill-rule:nonzero;fill:rgb(17.647059%,16.470588%,43.921569%);fill-opacity:1;" d="M 136.09375 0 C 131.054688 0 126.828125 3.828125 126.304688 8.871094 L 125.046875 20.980469 L 147.578125 12.003906 L 148.800781 0 Z M 120.664062 63 L 142.34375 63 L 147.09375 16.621094 L 124.027344 30.738281 Z M 120.664062 63 "/>
</g>
</svg>
