<?xml version="1.0" encoding="UTF-8"?>
<svg xmlns="http://www.w3.org/2000/svg" xmlns:xlink="http://www.w3.org/1999/xlink" width="440px" height="220px" viewBox="0 0 150 150" version="1.1">
<g id="surface1">
<path style=" stroke:none;fill-rule:nonzero;fill:rgb(9.411765%,81.960784%,100%);fill-opacity:1;" d="M 76.632812 99.972656 C 76.632812 99.972656 78.617188 101.824219 78.25 102.871094 C 77.410156 105.273438 73.636719 106.390625 71.191406 105.726562 C 67.28125 104.664062 63.707031 100.15625 63.742188 96.089844 C 63.792969 90.125 69.871094 85.292969 74.914062 82.140625 C 80.105469 78.894531 86.703125 78.011719 92.820312 78.113281 C 99.476562 78.222656 106.582031 79.488281 112.15625 83.148438 C 115.257812 85.183594 117.820312 88.402344 119.03125 91.917969 C 119.71875 93.914062 119.03125 98.246094 119.03125 98.246094 C 119.03125 98.246094 124.5 90.664062 126.480469 86.453125 C 128.835938 81.433594 132.296875 76.140625 131.636719 70.632812 C 131.332031 68.113281 129.671875 65.664062 127.625 64.160156 C 121.0625 59.367188 112.105469 58.535156 103.992188 58.265625 C 95.605469 57.984375 87.078125 59.78125 79.210938 62.722656 C 73.855469 64.722656 68.609375 67.550781 64.457031 71.496094 C 59.785156 75.9375 55.300781 81.339844 53.714844 87.601562 C 52.6875 91.660156 52.90625 96.414062 54.863281 100.117188 C 56.628906 103.457031 60.105469 105.898438 63.597656 107.308594 C 67.019531 108.6875 71.117188 109.308594 74.628906 108.167969 C 76.949219 107.417969 80.136719 105.871094 80.214844 103.421875 C 80.328125 99.816406 76.632812 99.972656 76.632812 99.972656 Z M 76.632812 99.972656 "/>
<path style=" stroke:none;fill-rule:nonzero;fill:rgb(0.392157%,40%,99.607843%);fill-opacity:1;" d="M 74.6875 102.09375 C 74.6875 102.09375 74.171875 100.492188 74.613281 99.914062 C 75.332031 98.984375 76.949219 98.730469 78.054688 99.144531 C 79.652344 99.75 81.078125 101.570312 81.082031 103.277344 C 81.085938 105.472656 79.164062 107.605469 77.214844 108.601562 C 72.957031 110.773438 67.40625 110.152344 62.890625 108.601562 C 59.058594 107.28125 55.308594 104.648438 53.292969 101.121094 C 50.371094 96.003906 49.6875 89.324219 51 83.574219 C 52.34375 77.703125 56.695312 72.789062 60.886719 68.472656 C 65.390625 63.839844 70.839844 59.910156 76.785156 57.398438 C 83.597656 54.527344 91.1875 53.761719 98.558594 53.230469 C 104.898438 52.773438 111.363281 52.90625 117.609375 54.09375 C 121.527344 54.835938 125.488281 55.945312 128.925781 57.976562 C 130.277344 58.773438 132.417969 61.140625 132.417969 61.140625 C 132.417969 61.140625 131.476562 49.03125 129.640625 43.304688 C 128.050781 38.347656 126.363281 32.964844 122.621094 29.355469 C 119.972656 26.800781 116.1875 25.535156 112.597656 24.765625 C 105.773438 23.300781 98.542969 23.652344 91.683594 24.898438 C 83.671875 26.351562 75.925781 29.488281 68.746094 33.347656 C 62.027344 36.960938 55.699219 41.507812 50.285156 46.902344 C 45.855469 51.320312 41.675781 56.285156 39.113281 62.003906 C 36.535156 67.765625 35.203125 74.238281 35.246094 80.554688 C 35.28125 85.613281 36.324219 90.828125 38.542969 95.367188 C 40.617188 99.617188 43.941406 103.273438 47.566406 106.300781 C 50.71875 108.933594 54.429688 110.988281 58.308594 112.320312 C 61.964844 113.578125 65.910156 114.285156 69.769531 114.066406 C 74.28125 113.808594 79.417969 113.453125 82.859375 110.511719 C 84.871094 108.792969 86.324219 105.902344 86.117188 103.261719 C 85.976562 101.410156 84.652344 99.574219 83.082031 98.597656 C 81.363281 97.527344 79.011719 96.867188 77.058594 97.394531 C 75.246094 97.882812 73.726562 98.855469 73.5 100.378906 C 73.390625 101.097656 74.695312 102.09375 74.695312 102.09375 Z M 74.6875 102.09375 "/>
<path style=" stroke:none;fill-rule:nonzero;fill:rgb(0.392157%,0%,80%);fill-opacity:1;" d="M 75.292969 103.378906 C 75.292969 103.378906 72.515625 102.816406 71.792969 101.773438 C 70.753906 100.265625 70.824219 98.140625 71.84375 96.621094 C 73.523438 94.117188 77.117188 93.160156 80.121094 93.042969 C 85.195312 92.832031 91.394531 93.941406 94.558594 97.929688 C 97.199219 101.257812 97.734375 106.839844 95.816406 110.636719 C 93.894531 114.445312 88.902344 115.925781 84.824219 117.152344 C 78.445312 119.070312 71.449219 119.171875 64.867188 118.128906 C 58.070312 117.054688 51.433594 114.398438 45.5625 110.792969 C 39.089844 106.828125 33.15625 101.628906 28.6875 95.480469 C 23.894531 88.886719 20.316406 81.152344 18.628906 73.171875 C 17.105469 65.945312 17.316406 58.257812 18.792969 51.019531 C 20.480469 42.8125 23.730469 35.011719 28.363281 28.042969 C 31.902344 22.75 36.65625 18.222656 41.832031 14.523438 C 46.480469 11.203125 51.835938 8.863281 57.242188 7.03125 C 61.632812 5.542969 66.242188 4.507812 70.871094 4.261719 C 76.621094 3.957031 82.445312 4.636719 88.066406 5.890625 C 92.777344 6.941406 97.425781 8.511719 101.695312 10.777344 C 106.726562 13.449219 115.484375 20.875 115.484375 20.875 C 115.484375 20.875 97.722656 19.171875 89.039062 20.710938 C 78.8125 22.53125 68.714844 26.210938 59.835938 31.625 C 53.226562 35.660156 47.398438 41.144531 42.640625 47.265625 C 38.828125 52.167969 35.796875 57.804688 33.886719 63.71875 C 31.941406 69.71875 30.914062 76.15625 31.289062 82.449219 C 31.542969 86.710938 32.652344 91.003906 34.535156 94.828125 C 36.410156 98.648438 39.136719 102.117188 42.320312 104.929688 C 46.460938 108.570312 51.25 111.390625 56.4375 113.238281 C 60.613281 114.714844 65.148438 115.246094 69.578125 115.191406 C 73.363281 115.144531 77.402344 114.96875 80.773438 113.238281 C 83.597656 111.785156 86.621094 109.601562 87.585938 106.558594 C 88.371094 104.089844 87.894531 100.863281 86.207031 98.902344 C 84.539062 96.964844 81.503906 96.457031 78.957031 96.457031 C 77.082031 96.457031 74.988281 96.953125 73.632812 98.25 C 72.878906 98.976562 72.488281 99.902344 72.761719 100.914062 C 73.078125 102.0625 75.296875 103.382812 75.296875 103.382812 Z M 24.433594 126.222656 L 18.070312 132.359375 L 15.6875 134.777344 C 17.949219 137.367188 20.21875 139.949219 22.5 142.519531 L 24.769531 145.335938 L 24.769531 145.476562 L 23.226562 145.390625 L 21.65625 145.476562 C 21.359375 145.042969 21.039062 144.613281 20.703125 144.179688 C 20.382812 143.730469 20.054688 143.308594 19.722656 142.90625 L 13.609375 135.730469 C 13.519531 135.65625 13.394531 135.609375 13.246094 135.589844 C 13.171875 135.609375 13.132812 135.625 13.132812 135.644531 L 13.132812 145.46875 L 11.902344 145.382812 L 10.667969 145.46875 L 10.667969 126.214844 L 11.902344 126.300781 L 13.132812 126.214844 L 13.132812 134.914062 C 13.152344 134.988281 13.238281 135.007812 13.386719 134.96875 C 13.554688 134.933594 13.714844 134.855469 13.871094 134.742188 C 14.019531 134.613281 14.328125 134.320312 14.792969 133.871094 C 14.964844 133.703125 15.140625 133.53125 15.328125 133.363281 L 22.226562 126.214844 L 23.347656 126.300781 Z M 24.433594 126.222656 "/>
<path style=" stroke:none;fill-rule:nonzero;fill:rgb(0.392157%,0%,80%);fill-opacity:1;" d="M 44.675781 135.617188 C 44.675781 134.339844 44.554688 133.214844 44.3125 132.238281 C 44.070312 131.246094 43.601562 130.304688 42.910156 129.425781 C 42.21875 128.542969 41.359375 127.867188 40.332031 127.398438 C 39.320312 126.929688 38.238281 126.695312 37.078125 126.695312 C 34.628906 126.695312 32.695312 127.558594 31.277344 129.285156 C 29.875 130.992188 29.175781 133.28125 29.175781 136.152344 C 29.175781 138.910156 29.921875 141.078125 31.417969 142.65625 C 32.820312 144.121094 34.621094 144.851562 36.828125 144.851562 C 39.460938 144.851562 41.507812 143.707031 42.964844 141.417969 C 44.105469 139.632812 44.675781 137.703125 44.675781 135.617188 Z M 36.742188 145.777344 C 33.621094 145.777344 31.117188 144.875 29.230469 143.074219 C 27.359375 141.253906 26.425781 138.835938 26.425781 135.8125 C 26.425781 132.792969 27.425781 130.34375 29.425781 128.464844 C 31.351562 126.664062 33.808594 125.761719 36.800781 125.761719 C 39.714844 125.761719 42.144531 126.523438 44.089844 128.042969 C 46.3125 129.789062 47.425781 132.238281 47.425781 135.390625 C 47.425781 138.503906 46.433594 141.019531 44.453125 142.933594 C 42.472656 144.832031 39.902344 145.78125 36.742188 145.78125 Z M 36.742188 145.777344 "/>
<path style=" stroke:none;fill-rule:nonzero;fill:rgb(0.392157%,0%,80%);fill-opacity:1;" d="M 69.261719 126.222656 L 69.851562 126.222656 C 70.242188 129.957031 70.484375 132.246094 70.578125 133.089844 C 70.878906 135.847656 71.121094 137.996094 71.308594 139.535156 C 71.507812 141.054688 71.78125 143.035156 72.121094 145.476562 L 70.804688 145.390625 L 69.488281 145.476562 C 69.320312 143.601562 69.15625 141.808594 69.003906 140.097656 C 68.871094 138.390625 68.710938 136.703125 68.519531 135.03125 C 68.351562 133.363281 68.191406 132 68.039062 130.949219 C 66.898438 133.015625 65.90625 134.816406 65.066406 136.355469 C 64.09375 138.15625 63.28125 139.714844 62.625 141.027344 C 61.917969 142.472656 61.273438 143.851562 60.691406 145.164062 L 60.390625 145.164062 L 58.847656 141.984375 C 58.175781 140.578125 57.578125 139.363281 57.054688 138.347656 C 56.53125 137.316406 55.886719 136.066406 55.117188 134.601562 C 54.464844 133.382812 53.820312 132.164062 53.183594 130.945312 C 52.863281 133.628906 52.554688 136.339844 52.257812 139.078125 C 51.960938 141.820312 51.8125 143.949219 51.8125 145.46875 L 50.828125 145.382812 L 49.820312 145.46875 C 50.210938 143.027344 50.726562 139.566406 51.363281 135.082031 C 52 130.578125 52.382812 127.621094 52.511719 126.214844 L 53.234375 126.214844 C 54.207031 128.128906 55.003906 129.695312 55.621094 130.914062 C 56.367188 132.359375 57.253906 134.019531 58.277344 135.898438 C 59.398438 137.941406 60.359375 139.632812 61.164062 140.964844 C 63.855469 136.046875 66.546875 131.132812 69.238281 126.214844 Z M 76.191406 145.488281 L 76.191406 126.234375 L 77.421875 126.316406 L 78.65625 126.234375 L 78.65625 145.488281 L 77.421875 145.402344 Z M 100.378906 126.222656 L 100.378906 145.476562 L 99.539062 145.476562 L 98.082031 143.757812 L 85.972656 130.304688 L 85.691406 130.304688 L 85.691406 145.476562 L 84.90625 145.390625 L 84.121094 145.476562 L 84.121094 126.222656 L 85.207031 126.222656 L 98.523438 140.71875 L 98.804688 140.71875 L 98.804688 126.222656 L 99.589844 126.308594 Z M 105.632812 145.488281 L 105.632812 126.234375 L 115.585938 126.234375 L 115.5 127.078125 L 115.585938 127.921875 C 115.023438 127.808594 114.566406 127.734375 114.210938 127.695312 C 113.855469 127.640625 113.472656 127.609375 113.0625 127.609375 L 110.257812 127.554688 L 108.101562 127.554688 L 108.101562 134.613281 L 112.445312 134.613281 C 112.800781 134.613281 113.269531 134.59375 113.847656 134.558594 C 114.445312 134.5 114.808594 134.472656 114.933594 134.472656 L 114.851562 135.203125 L 114.933594 135.992188 C 114.597656 135.992188 114.132812 135.972656 113.53125 135.9375 C 112.933594 135.878906 112.574219 135.851562 112.445312 135.851562 L 108.101562 135.851562 L 108.101562 145.480469 L 106.867188 145.394531 Z M 105.632812 145.488281 "/>
<path style=" stroke:none;fill-rule:nonzero;fill:rgb(0.392157%,0%,80%);fill-opacity:1;" d="M 136.578125 135.617188 C 136.578125 134.339844 136.457031 133.214844 136.214844 132.238281 C 135.96875 131.246094 135.503906 130.304688 134.8125 129.425781 C 134.121094 128.542969 133.257812 127.867188 132.230469 127.398438 C 131.222656 126.929688 130.136719 126.695312 128.980469 126.695312 C 126.53125 126.695312 124.597656 127.558594 123.175781 129.285156 C 121.777344 130.992188 121.074219 133.28125 121.074219 136.152344 C 121.074219 138.910156 121.824219 141.078125 123.316406 142.65625 C 124.71875 144.121094 126.523438 144.851562 128.726562 144.851562 C 131.363281 144.851562 133.410156 143.707031 134.867188 141.417969 C 136.007812 139.632812 136.578125 137.703125 136.578125 135.617188 Z M 128.644531 145.777344 C 125.523438 145.777344 123.019531 144.875 121.132812 143.074219 C 119.261719 141.253906 118.328125 138.835938 118.328125 135.8125 C 118.328125 132.792969 119.328125 130.34375 121.328125 128.464844 C 123.253906 126.664062 125.710938 125.761719 128.699219 125.761719 C 131.617188 125.761719 134.046875 126.523438 135.988281 128.042969 C 138.214844 129.789062 139.324219 132.238281 139.324219 135.390625 C 139.324219 138.503906 138.335938 141.019531 136.355469 142.933594 C 134.371094 144.832031 131.800781 145.78125 128.644531 145.78125 Z M 128.644531 145.777344 "/>
</g>
</svg>
